<svg width="24" height="25" viewBox="0 0 24 25" fill="none" xmlns="http://www.w3.org/2000/svg">
<path d="M16 3.47607C15.4696 3.47607 14.9609 3.68679 14.5858 4.06186C14.2107 4.43693 14 4.94564 14 5.47607V11.4761C14 12.0065 14.2107 12.5152 14.5858 12.8903C14.9609 13.2654 15.4696 13.4761 16 13.4761C16.2652 13.4761 16.5196 13.5814 16.7071 13.769C16.8946 13.9565 17 14.2109 17 14.4761V15.4761C17 16.0065 16.7893 16.5152 16.4142 16.8903C16.0391 17.2654 15.5304 17.4761 15 17.4761C14.7348 17.4761 14.4804 17.5814 14.2929 17.769C14.1054 17.9565 14 18.2109 14 18.4761V20.4761C14 20.7413 14.1054 20.9956 14.2929 21.1832C14.4804 21.3707 14.7348 21.4761 15 21.4761C16.5913 21.4761 18.1174 20.8439 19.2426 19.7187C20.3679 18.5935 21 17.0674 21 15.4761V5.47607C21 4.94564 20.7893 4.43693 20.4142 4.06186C20.0391 3.68679 19.5304 3.47607 19 3.47607H16Z" stroke="black" stroke-width="2" stroke-linecap="round" stroke-linejoin="round"/>
<path d="M5 3.47607C4.46957 3.47607 3.96086 3.68679 3.58579 4.06186C3.21071 4.43693 3 4.94564 3 5.47607V11.4761C3 12.0065 3.21071 12.5152 3.58579 12.8903C3.96086 13.2654 4.46957 13.4761 5 13.4761C5.26522 13.4761 5.51957 13.5814 5.70711 13.769C5.89464 13.9565 6 14.2109 6 14.4761V15.4761C6 16.0065 5.78929 16.5152 5.41421 16.8903C5.03914 17.2654 4.53043 17.4761 4 17.4761C3.73478 17.4761 3.48043 17.5814 3.29289 17.769C3.10536 17.9565 3 18.2109 3 18.4761V20.4761C3 20.7413 3.10536 20.9956 3.29289 21.1832C3.48043 21.3707 3.73478 21.4761 4 21.4761C5.5913 21.4761 7.11742 20.8439 8.24264 19.7187C9.36786 18.5935 10 17.0674 10 15.4761V5.47607C10 4.94564 9.78929 4.43693 9.41421 4.06186C9.03914 3.68679 8.53043 3.47607 8 3.47607H5Z" stroke="black" stroke-width="2" stroke-linecap="round" stroke-linejoin="round"/>
</svg>
