<svg width="313" height="192" viewBox="0 0 313 192" fill="none" xmlns="http://www.w3.org/2000/svg">
<g filter="url(#filter0_d_2_270)">
<rect x="48" y="10" width="217.143" height="96.0952" rx="28.5714" fill="white" shape-rendering="crispEdges"/>
<rect x="67.0476" y="31.8571" width="52.381" height="52.381" rx="13.3333" fill="#1077ED"/>
<path d="M90.674 47.7912H85.5458C84.1297 47.7912 82.9817 48.9392 82.9817 50.3553V55.4835C82.9817 56.8996 84.1297 58.0476 85.5458 58.0476H90.674C92.0901 58.0476 93.2381 56.8996 93.2381 55.4835V50.3553C93.2381 48.9392 92.0901 47.7912 90.674 47.7912Z" fill="#1077ED"/>
<path d="M82.9817 41.3809H79.1355C78.4555 41.3809 77.8033 41.6511 77.3224 42.1319C76.8416 42.6128 76.5714 43.265 76.5714 43.945V47.7912" fill="#1077ED"/>
<path d="M103.494 41.3809H107.341C108.021 41.3809 108.673 41.6511 109.154 42.1319C109.635 42.6128 109.905 43.265 109.905 43.945V47.7912" fill="#1077ED"/>
<path d="M82.9817 74.7142H79.1355C78.4555 74.7142 77.8033 74.4441 77.3224 73.9632C76.8416 73.4824 76.5714 72.8302 76.5714 72.1501V68.304" fill="#1077ED"/>
<path d="M103.494 74.7142H107.341C108.021 74.7142 108.673 74.4441 109.154 73.9632C109.635 73.4824 109.905 72.8302 109.905 72.1501V68.304" fill="#1077ED"/>
<path d="M82.9817 64.4578V68.304H86.8278" fill="#1077ED"/>
<path d="M93.2381 68.304V64.4578H89.3919" fill="#1077ED"/>
<path d="M103.494 51.6373H99.6483V47.7912" fill="#1077ED"/>
<path d="M103.494 60.6117V56.7655H99.6483" fill="#1077ED"/>
<path d="M99.6483 64.4578V68.304H103.494" fill="#1077ED"/>
<path d="M82.9817 41.3809H79.1355C78.4555 41.3809 77.8033 41.6511 77.3224 42.1319C76.8416 42.6128 76.5714 43.265 76.5714 43.945V47.7912M103.494 41.3809H107.341C108.021 41.3809 108.673 41.6511 109.154 42.1319C109.635 42.6128 109.905 43.265 109.905 43.945V47.7912M82.9817 74.7142H79.1355C78.4555 74.7142 77.8033 74.4441 77.3224 73.9632C76.8416 73.4824 76.5714 72.8302 76.5714 72.1501V68.304M103.494 74.7142H107.341C108.021 74.7142 108.673 74.4441 109.154 73.9632C109.635 73.4824 109.905 72.8302 109.905 72.1501V68.304M82.9817 64.4578V68.304H86.8278M93.2381 68.304V64.4578H89.3919M103.494 51.6373H99.6483V47.7912M103.494 60.6117V56.7655H99.6483M99.6483 64.4578V68.304H103.494M85.5458 47.7912H90.674C92.0901 47.7912 93.2381 48.9392 93.2381 50.3553V55.4835C93.2381 56.8996 92.0901 58.0476 90.674 58.0476H85.5458C84.1297 58.0476 82.9817 56.8996 82.9817 55.4835V50.3553C82.9817 48.9392 84.1297 47.7912 85.5458 47.7912Z" stroke="#2E63A8" stroke-width="1.90476" stroke-linecap="round" stroke-linejoin="round"/>
<path d="M139.771 36.7714V50.0476H138.038V36.7714H139.771ZM147.049 39.419C148.319 39.419 149.348 39.8063 150.135 40.5809C150.922 41.3428 151.316 42.4476 151.316 43.8952V50.0476H149.602V44.1428C149.602 43.1016 149.341 42.3079 148.821 41.7619C148.3 41.2032 147.589 40.9238 146.687 40.9238C145.773 40.9238 145.043 41.2095 144.497 41.7809C143.964 42.3524 143.697 43.1841 143.697 44.2762V50.0476H141.964V39.6095H143.697V41.0952C144.04 40.5619 144.503 40.1492 145.087 39.8571C145.684 39.5651 146.338 39.419 147.049 39.419ZM158.471 39.419C159.741 39.419 160.77 39.8063 161.557 40.5809C162.344 41.3428 162.738 42.4476 162.738 43.8952V50.0476H161.024V44.1428C161.024 43.1016 160.763 42.3079 160.243 41.7619C159.722 41.2032 159.011 40.9238 158.109 40.9238C157.195 40.9238 156.465 41.2095 155.919 41.7809C155.386 42.3524 155.119 43.1841 155.119 44.2762V50.0476H153.386V39.6095H155.119V41.0952C155.462 40.5619 155.925 40.1492 156.509 39.8571C157.106 39.5651 157.76 39.419 158.471 39.419ZM169.36 50.219C168.382 50.219 167.493 49.9968 166.693 49.5524C165.906 49.1079 165.284 48.4794 164.826 47.6667C164.382 46.8413 164.16 45.8889 164.16 44.8095C164.16 43.7428 164.388 42.8032 164.846 41.9905C165.315 41.1651 165.95 40.5365 166.75 40.1047C167.55 39.6603 168.446 39.4381 169.436 39.4381C170.426 39.4381 171.322 39.6603 172.122 40.1047C172.922 40.5365 173.55 41.1587 174.007 41.9714C174.477 42.7841 174.712 43.7301 174.712 44.8095C174.712 45.8889 174.471 46.8413 173.988 47.6667C173.519 48.4794 172.877 49.1079 172.065 49.5524C171.252 49.9968 170.35 50.219 169.36 50.219ZM169.36 48.6952C169.982 48.6952 170.566 48.5492 171.112 48.2571C171.658 47.9651 172.096 47.527 172.426 46.9428C172.769 46.3587 172.941 45.6476 172.941 44.8095C172.941 43.9714 172.776 43.2603 172.446 42.6762C172.115 42.0921 171.684 41.6603 171.15 41.3809C170.617 41.0889 170.039 40.9428 169.417 40.9428C168.782 40.9428 168.198 41.0889 167.665 41.3809C167.144 41.6603 166.725 42.0921 166.407 42.6762C166.09 43.2603 165.931 43.9714 165.931 44.8095C165.931 45.6603 166.084 46.3778 166.388 46.9619C166.706 47.546 167.125 47.9841 167.646 48.2762C168.166 48.5555 168.738 48.6952 169.36 48.6952ZM180.115 48.4476L183.353 39.6095H185.201L181.105 50.0476H179.086L174.991 39.6095H176.858L180.115 48.4476ZM185.497 44.7905C185.497 43.7238 185.713 42.7905 186.144 41.9905C186.576 41.1778 187.167 40.5492 187.916 40.1047C188.678 39.6603 189.522 39.4381 190.449 39.4381C191.364 39.4381 192.157 39.6349 192.83 40.0286C193.503 40.4222 194.005 40.9174 194.335 41.5143V39.6095H196.087V50.0476H194.335V48.1047C193.992 48.7143 193.478 49.2222 192.792 49.6286C192.119 50.0222 191.332 50.219 190.43 50.219C189.503 50.219 188.665 49.9905 187.916 49.5333C187.167 49.0762 186.576 48.4349 186.144 47.6095C185.713 46.7841 185.497 45.8444 185.497 44.7905ZM194.335 44.8095C194.335 44.0222 194.176 43.3365 193.859 42.7524C193.541 42.1682 193.11 41.7238 192.564 41.419C192.03 41.1016 191.44 40.9428 190.792 40.9428C190.144 40.9428 189.554 41.0952 189.021 41.4C188.487 41.7047 188.062 42.1492 187.744 42.7333C187.427 43.3174 187.268 44.0032 187.268 44.7905C187.268 45.5905 187.427 46.2889 187.744 46.8857C188.062 47.4698 188.487 47.9206 189.021 48.2381C189.554 48.5428 190.144 48.6952 190.792 48.6952C191.44 48.6952 192.03 48.5428 192.564 48.2381C193.11 47.9206 193.541 47.4698 193.859 46.8857C194.176 46.2889 194.335 45.5968 194.335 44.8095ZM200.369 41.0381V47.1905C200.369 47.6984 200.477 48.0603 200.693 48.2762C200.909 48.4794 201.283 48.5809 201.817 48.5809H203.093V50.0476H201.531C200.566 50.0476 199.842 49.8254 199.359 49.3809C198.877 48.9365 198.636 48.2063 198.636 47.1905V41.0381H197.283V39.6095H198.636V36.9809H200.369V39.6095H203.093V41.0381H200.369ZM205.326 37.9143C204.996 37.9143 204.717 37.8 204.488 37.5714C204.26 37.3428 204.145 37.0635 204.145 36.7333C204.145 36.4032 204.26 36.1238 204.488 35.8952C204.717 35.6667 204.996 35.5524 205.326 35.5524C205.644 35.5524 205.91 35.6667 206.126 35.8952C206.355 36.1238 206.469 36.4032 206.469 36.7333C206.469 37.0635 206.355 37.3428 206.126 37.5714C205.91 37.8 205.644 37.9143 205.326 37.9143ZM206.164 39.6095V50.0476H204.431V39.6095H206.164ZM212.242 48.4476L215.48 39.6095H217.328L213.233 50.0476H211.214L207.118 39.6095H208.985L212.242 48.4476ZM227.796 44.4286C227.796 44.7587 227.776 45.1079 227.738 45.4762H219.396C219.459 46.5047 219.808 47.3111 220.443 47.8952C221.091 48.4667 221.872 48.7524 222.786 48.7524C223.535 48.7524 224.157 48.5809 224.653 48.2381C225.161 47.8825 225.516 47.4127 225.719 46.8286H227.586C227.307 47.8317 226.748 48.6508 225.91 49.2857C225.072 49.9079 224.03 50.219 222.786 50.219C221.796 50.219 220.907 49.9968 220.119 49.5524C219.345 49.1079 218.735 48.4794 218.291 47.6667C217.846 46.8413 217.624 45.8889 217.624 44.8095C217.624 43.7301 217.84 42.7841 218.272 41.9714C218.703 41.1587 219.307 40.5365 220.081 40.1047C220.869 39.6603 221.77 39.4381 222.786 39.4381C223.776 39.4381 224.653 39.654 225.415 40.0857C226.176 40.5174 226.761 41.1143 227.167 41.8762C227.586 42.6254 227.796 43.4762 227.796 44.4286ZM226.005 44.0667C226.005 43.4063 225.859 42.8413 225.567 42.3714C225.275 41.8889 224.875 41.527 224.367 41.2857C223.872 41.0317 223.319 40.9047 222.71 40.9047C221.834 40.9047 221.084 41.1841 220.462 41.7428C219.853 42.3016 219.503 43.0762 219.415 44.0667H226.005ZM142.248 79.1809C141.371 79.1809 140.584 79.0286 139.886 78.7238C139.2 78.4063 138.66 77.9746 138.267 77.4286C137.873 76.8698 137.67 76.2286 137.657 75.5047H139.505C139.568 76.127 139.822 76.654 140.267 77.0857C140.724 77.5048 141.384 77.7143 142.248 77.7143C143.073 77.7143 143.721 77.5111 144.19 77.1047C144.673 76.6857 144.914 76.1524 144.914 75.5047C144.914 74.9968 144.775 74.5841 144.495 74.2667C144.216 73.9492 143.867 73.7079 143.448 73.5428C143.029 73.3778 142.463 73.2 141.752 73.0095C140.876 72.7809 140.171 72.5524 139.638 72.3238C139.117 72.0952 138.667 71.7397 138.286 71.2571C137.917 70.7619 137.733 70.1016 137.733 69.2762C137.733 68.5524 137.917 67.9111 138.286 67.3524C138.654 66.7936 139.168 66.3619 139.829 66.0571C140.502 65.7524 141.27 65.6 142.133 65.6C143.378 65.6 144.394 65.9111 145.181 66.5333C145.981 67.1555 146.432 67.9809 146.533 69.0095H144.629C144.565 68.5016 144.298 68.0571 143.829 67.6762C143.359 67.2825 142.736 67.0857 141.962 67.0857C141.238 67.0857 140.648 67.2762 140.19 67.6571C139.733 68.0254 139.505 68.546 139.505 69.219C139.505 69.7016 139.638 70.0952 139.905 70.4C140.184 70.7047 140.521 70.9397 140.914 71.1047C141.321 71.2571 141.886 71.4349 142.61 71.6381C143.486 71.8794 144.19 72.1206 144.724 72.3619C145.257 72.5905 145.714 72.9524 146.095 73.4476C146.476 73.9301 146.667 74.5905 146.667 75.4286C146.667 76.0762 146.495 76.6857 146.152 77.2571C145.81 77.8286 145.302 78.2921 144.629 78.6476C143.956 79.0032 143.162 79.1809 142.248 79.1809ZM153.008 79.219C152.03 79.219 151.141 78.9968 150.341 78.5524C149.554 78.1079 148.932 77.4794 148.475 76.6667C148.03 75.8413 147.808 74.8889 147.808 73.8095C147.808 72.7428 148.036 71.8032 148.494 70.9905C148.963 70.1651 149.598 69.5365 150.398 69.1047C151.198 68.6603 152.094 68.4381 153.084 68.4381C154.075 68.4381 154.97 68.6603 155.77 69.1047C156.57 69.5365 157.198 70.1587 157.655 70.9714C158.125 71.7841 158.36 72.7301 158.36 73.8095C158.36 74.8889 158.119 75.8413 157.636 76.6667C157.167 77.4794 156.525 78.1079 155.713 78.5524C154.9 78.9968 153.998 79.219 153.008 79.219ZM153.008 77.6952C153.63 77.6952 154.214 77.5492 154.76 77.2571C155.306 76.9651 155.744 76.527 156.075 75.9428C156.417 75.3587 156.589 74.6476 156.589 73.8095C156.589 72.9714 156.424 72.2603 156.094 71.6762C155.763 71.0921 155.332 70.6603 154.798 70.3809C154.265 70.0889 153.687 69.9428 153.065 69.9428C152.43 69.9428 151.846 70.0889 151.313 70.3809C150.792 70.6603 150.373 71.0921 150.055 71.6762C149.738 72.2603 149.579 72.9714 149.579 73.8095C149.579 74.6603 149.732 75.3778 150.036 75.9619C150.354 76.546 150.773 76.9841 151.294 77.2762C151.814 77.5555 152.386 77.6952 153.008 77.6952ZM161.611 64.9524V79.0476H159.877V64.9524H161.611ZM173.06 68.6095V79.0476H171.327V77.5048C170.997 78.0381 170.533 78.4571 169.936 78.7619C169.352 79.054 168.705 79.2 167.993 79.2C167.181 79.2 166.451 79.0349 165.803 78.7048C165.155 78.3619 164.641 77.854 164.26 77.1809C163.892 76.5079 163.708 75.6889 163.708 74.7238V68.6095H165.422V74.4952C165.422 75.5238 165.682 76.3174 166.203 76.8762C166.724 77.4222 167.435 77.6952 168.336 77.6952C169.263 77.6952 169.993 77.4095 170.527 76.8381C171.06 76.2667 171.327 75.4349 171.327 74.3428V68.6095H173.06ZM177.339 70.0381V76.1905C177.339 76.6984 177.447 77.0603 177.663 77.2762C177.879 77.4794 178.253 77.5809 178.787 77.5809H180.063V79.0476H178.501C177.536 79.0476 176.812 78.8254 176.33 78.3809C175.847 77.9365 175.606 77.2063 175.606 76.1905V70.0381H174.253V68.6095H175.606V65.9809H177.339V68.6095H180.063V70.0381H177.339ZM182.296 66.9143C181.966 66.9143 181.687 66.8 181.458 66.5714C181.23 66.3428 181.115 66.0635 181.115 65.7333C181.115 65.4032 181.23 65.1238 181.458 64.8952C181.687 64.6667 181.966 64.5524 182.296 64.5524C182.614 64.5524 182.881 64.6667 183.096 64.8952C183.325 65.1238 183.439 65.4032 183.439 65.7333C183.439 66.0635 183.325 66.3428 183.096 66.5714C182.881 66.8 182.614 66.9143 182.296 66.9143ZM183.135 68.6095V79.0476H181.401V68.6095H183.135ZM189.879 79.219C188.901 79.219 188.012 78.9968 187.212 78.5524C186.425 78.1079 185.803 77.4794 185.346 76.6667C184.901 75.8413 184.679 74.8889 184.679 73.8095C184.679 72.7428 184.908 71.8032 185.365 70.9905C185.835 70.1651 186.47 69.5365 187.27 69.1047C188.07 68.6603 188.965 68.4381 189.955 68.4381C190.946 68.4381 191.841 68.6603 192.641 69.1047C193.441 69.5365 194.07 70.1587 194.527 70.9714C194.997 71.7841 195.232 72.7301 195.232 73.8095C195.232 74.8889 194.99 75.8413 194.508 76.6667C194.038 77.4794 193.397 78.1079 192.584 78.5524C191.771 78.9968 190.87 79.219 189.879 79.219ZM189.879 77.6952C190.501 77.6952 191.086 77.5492 191.632 77.2571C192.178 76.9651 192.616 76.527 192.946 75.9428C193.289 75.3587 193.46 74.6476 193.46 73.8095C193.46 72.9714 193.295 72.2603 192.965 71.6762C192.635 71.0921 192.203 70.6603 191.67 70.3809C191.136 70.0889 190.559 69.9428 189.936 69.9428C189.301 69.9428 188.717 70.0889 188.184 70.3809C187.663 70.6603 187.244 71.0921 186.927 71.6762C186.609 72.2603 186.451 72.9714 186.451 73.8095C186.451 74.6603 186.603 75.3778 186.908 75.9619C187.225 76.546 187.644 76.9841 188.165 77.2762C188.686 77.5555 189.257 77.6952 189.879 77.6952ZM201.834 68.419C203.104 68.419 204.133 68.8063 204.92 69.5809C205.707 70.3428 206.101 71.4476 206.101 72.8952V79.0476H204.387V73.1428C204.387 72.1016 204.126 71.3079 203.606 70.7619C203.085 70.2032 202.374 69.9238 201.472 69.9238C200.558 69.9238 199.828 70.2095 199.282 70.7809C198.749 71.3524 198.482 72.1841 198.482 73.2762V79.0476H196.749V68.6095H198.482V70.0952C198.825 69.5619 199.288 69.1492 199.872 68.8571C200.469 68.5651 201.123 68.419 201.834 68.419ZM211.866 79.219C211.066 79.219 210.348 79.0857 209.713 78.819C209.078 78.5397 208.577 78.1587 208.209 77.6762C207.84 77.1809 207.637 76.6159 207.599 75.9809H209.39C209.44 76.5016 209.682 76.927 210.113 77.2571C210.558 77.5873 211.136 77.7524 211.847 77.7524C212.507 77.7524 213.028 77.6063 213.409 77.3143C213.79 77.0222 213.98 76.654 213.98 76.2095C213.98 75.7524 213.777 75.4159 213.371 75.2C212.964 74.9714 212.336 74.7492 211.485 74.5333C210.71 74.3301 210.075 74.127 209.58 73.9238C209.098 73.7079 208.678 73.3968 208.323 72.9905C207.98 72.5714 207.809 72.0254 207.809 71.3524C207.809 70.819 207.967 70.3301 208.285 69.8857C208.602 69.4413 209.053 69.0921 209.637 68.8381C210.221 68.5714 210.888 68.4381 211.637 68.4381C212.793 68.4381 213.726 68.7301 214.437 69.3143C215.148 69.8984 215.529 70.6984 215.58 71.7143H213.847C213.809 71.1682 213.586 70.7301 213.18 70.4C212.786 70.0698 212.253 69.9047 211.58 69.9047C210.958 69.9047 210.463 70.0381 210.094 70.3047C209.726 70.5714 209.542 70.9206 209.542 71.3524C209.542 71.6952 209.65 71.9809 209.866 72.2095C210.094 72.4254 210.374 72.6032 210.704 72.7428C211.047 72.8698 211.517 73.0159 212.113 73.1809C212.863 73.3841 213.472 73.5873 213.942 73.7905C214.412 73.9809 214.812 74.273 215.142 74.6667C215.485 75.0603 215.663 75.5746 215.675 76.2095C215.675 76.7809 215.517 77.2952 215.199 77.7524C214.882 78.2095 214.431 78.5714 213.847 78.8381C213.275 79.0921 212.615 79.219 211.866 79.219Z" fill="#4A4D54"/>
</g>
<defs>
<filter id="filter0_d_2_270" x="0.380947" y="0.476189" width="312.381" height="191.333" filterUnits="userSpaceOnUse" color-interpolation-filters="sRGB">
<feFlood flood-opacity="0" result="BackgroundImageFix"/>
<feColorMatrix in="SourceAlpha" type="matrix" values="0 0 0 0 0 0 0 0 0 0 0 0 0 0 0 0 0 0 127 0" result="hardAlpha"/>
<feOffset dy="38.0952"/>
<feGaussianBlur stdDeviation="23.8095"/>
<feComposite in2="hardAlpha" operator="out"/>
<feColorMatrix type="matrix" values="0 0 0 0 0.614251 0 0 0 0 0.0742021 0 0 0 0 1 0 0 0 0.15 0"/>
<feBlend mode="normal" in2="BackgroundImageFix" result="effect1_dropShadow_2_270"/>
<feBlend mode="normal" in="SourceGraphic" in2="effect1_dropShadow_2_270" result="shape"/>
</filter>
</defs>
</svg>
