<svg width="20" height="18" viewBox="0 0 20 18" fill="none" xmlns="http://www.w3.org/2000/svg">
<path d="M9.60425 1.38857C9.64077 1.31478 9.69719 1.25268 9.76713 1.20925C9.83707 1.16583 9.91776 1.14282 10.0001 1.14282C10.0824 1.14282 10.1631 1.16583 10.233 1.20925C10.303 1.25268 10.3594 1.31478 10.3959 1.38857L12.3209 5.28773C12.4477 5.54437 12.6349 5.76641 12.8664 5.93478C13.098 6.10315 13.3669 6.21283 13.6501 6.2544L17.9551 6.8844C18.0367 6.89622 18.1133 6.93063 18.1763 6.98373C18.2394 7.03684 18.2863 7.10652 18.3118 7.18491C18.3373 7.26329 18.3403 7.34724 18.3206 7.42726C18.3008 7.50729 18.2591 7.58019 18.2001 7.63773L15.0868 10.6694C14.8814 10.8695 14.7278 11.1165 14.6391 11.3891C14.5504 11.6617 14.5293 11.9518 14.5776 12.2344L15.3126 16.5177C15.327 16.5993 15.3182 16.6832 15.2872 16.76C15.2562 16.8367 15.2042 16.9032 15.1372 16.9519C15.0702 17.0006 14.9909 17.0294 14.9083 17.0351C14.8257 17.0409 14.7432 17.0233 14.6701 16.9844L10.8218 14.9611C10.5682 14.8279 10.2861 14.7584 9.99967 14.7584C9.71327 14.7584 9.43115 14.8279 9.17759 14.9611L5.33009 16.9844C5.25703 17.0231 5.17458 17.0405 5.09213 17.0346C5.00967 17.0288 4.93052 16.9999 4.86367 16.9512C4.79681 16.9026 4.74495 16.8362 4.71397 16.7596C4.68299 16.6829 4.67413 16.5992 4.68842 16.5177L5.42259 12.2352C5.47108 11.9525 5.45007 11.6622 5.36137 11.3894C5.27266 11.1166 5.11893 10.8695 4.91342 10.6694L1.80009 7.63857C1.74058 7.58109 1.69841 7.50806 1.67839 7.4278C1.65836 7.34753 1.66128 7.26325 1.68682 7.18456C1.71235 7.10587 1.75947 7.03593 1.82282 6.98272C1.88616 6.9295 1.96317 6.89515 2.04509 6.88357L6.34925 6.2544C6.6328 6.21315 6.90208 6.10361 7.13391 5.93522C7.36574 5.76683 7.55317 5.54463 7.68009 5.28773L9.60425 1.38857Z" stroke="black" stroke-width="1.66667" stroke-linecap="round" stroke-linejoin="round"/>
</svg>
